<svg width="16" height="17" viewBox="0 0 16 17" fill="none" xmlns="http://www.w3.org/2000/svg">
<path fill-rule="evenodd" clip-rule="evenodd" d="M11.0002 5C11.0002 6.65685 9.6571 8 8.00024 8C6.34339 8 5.00024 6.65685 5.00024 5C5.00024 3.34315 6.34339 2 8.00024 2C9.6571 2 11.0002 3.34315 11.0002 5ZM13.0002 5C13.0002 7.76142 10.7617 10 8.00024 10C5.23882 10 3.00024 7.76142 3.00024 5C3.00024 2.23858 5.23882 0 8.00024 0C10.7617 0 13.0002 2.23858 13.0002 5ZM15.9865 15.502C15.9149 14.9452 15.7843 14.4065 15.6009 13.892C15.1405 12.6004 14.3478 11.4619 13.3233 10.5752C13.2525 10.5141 13.1807 10.4541 13.1079 10.3953L13.0992 10.3883C13.0582 10.3554 13.0169 10.3228 12.9752 10.2906C12.837 10.1839 12.6695 10.1181 12.495 10.1121C11.984 10.0947 11.7245 10.2137 11.5249 10.4395C11.1656 10.8456 11.3614 11.488 11.7568 11.8683C11.7707 11.8817 11.7848 11.8948 11.7992 11.9075C11.8144 11.9209 11.8299 11.934 11.8457 11.9466C11.8934 11.985 11.9405 12.0242 11.987 12.0639C12.1477 12.2014 12.3007 12.3469 12.4454 12.4998C12.9894 13.0745 13.4169 13.7536 13.6933 14.4998H11.4764H4.52314H2.30628C2.58266 13.7536 3.01012 13.0745 3.55411 12.4998C3.69677 12.3491 3.84745 12.2056 4.00553 12.0699C4.05446 12.0279 4.10411 11.9867 4.15445 11.9462C4.17012 11.9336 4.18555 11.9206 4.20072 11.9072C4.21508 11.8945 4.2292 11.8815 4.24308 11.8681C4.63867 11.4879 4.83467 10.8455 4.47542 10.4393C4.2758 10.2136 4.01629 10.0945 3.5052 10.1118C3.33058 10.1177 3.16301 10.1835 3.02472 10.2903C2.98319 10.3224 2.94198 10.3549 2.90111 10.3877L2.89215 10.3949C2.81382 10.4581 2.73671 10.5227 2.66089 10.5886C1.64382 11.4734 0.85671 12.6069 0.398645 13.892C0.215271 14.4065 0.0846282 14.9452 0.0130746 15.502C-0.0573196 16.0498 0.39715 16.4998 0.949435 16.4998H2.30628H13.6933H15.0501C15.6024 16.4998 16.0569 16.0498 15.9865 15.502Z" fill="white" fill-opacity="0.5"/>
</svg>
