<svg width="17" height="18" viewBox="0 0 17 18" fill="none" xmlns="http://www.w3.org/2000/svg">
<path fill-rule="evenodd" clip-rule="evenodd" d="M2.79014 17.0703H4.07691V15.4264H2.08111V17.0703H2.79014ZM16.183 2.83683C16.183 1.73285 15.4214 0.838135 14.4498 0.838135H7.83216C6.86052 0.838135 6.09897 1.73285 6.09897 2.83683V15.0564C6.09897 16.1604 6.86052 17.0551 7.83216 17.0551H14.4498C15.4214 17.0551 16.183 16.1604 16.183 15.0564V2.83683ZM14.7649 2.83683V15.0564C14.7649 15.2536 14.6336 15.4143 14.4498 15.4143H7.83216C7.64834 15.4143 7.51703 15.2536 7.51703 15.0564V2.83683C7.51703 2.63969 7.64834 2.47892 7.83216 2.47892H14.4498C14.6336 2.47892 14.7649 2.63969 14.7649 2.83683ZM11.141 8.97544C12.2702 8.97544 13.163 10.0248 13.163 11.3198C13.163 12.6149 12.2702 13.6673 11.141 13.6673C10.0118 13.6673 9.11892 12.6149 9.11892 11.3198C9.11892 10.0248 10.0118 8.97544 11.141 8.97544ZM3.36787 0.838135H1.84477C0.873127 0.838135 0.111572 1.72679 0.111572 2.82167V10.3796C0.111572 11.4745 0.873127 12.3632 1.84477 12.3632H4.07691V10.7224H1.84477C1.66094 10.7224 1.52964 10.5677 1.52964 10.3796V2.82167C1.52964 2.63363 1.66094 2.47892 1.84477 2.47892H4.07691V0.838135H3.36787ZM11.141 4.25015C11.6925 4.25015 12.1651 4.77483 12.1651 5.42084C12.1651 6.06988 11.6925 6.59461 11.141 6.59461C10.5895 6.59461 10.1168 6.06988 10.1168 5.42084C10.1168 4.77483 10.5895 4.25015 11.141 4.25015Z" fill="white" fill-opacity="0.5"/>
</svg>
