<svg width="17" height="17" viewBox="0 0 17 17" fill="none" xmlns="http://www.w3.org/2000/svg">
<path fill-rule="evenodd" clip-rule="evenodd" d="M2.34864 13.4175V12.3308C2.34864 11.8251 1.94452 11.4136 1.44715 11.4136C0.949771 11.4136 0.545654 11.8251 0.545654 12.3308V16.5175H4.68008C5.17746 16.5175 5.58158 16.1061 5.58158 15.6004C5.58158 15.0947 5.17746 14.6864 4.68008 14.6864H3.65425L6.98044 11.3225C7.32239 10.9645 7.32239 10.3834 6.98044 10.0253C6.60741 9.6704 6.04786 9.67039 5.70592 10.0285L2.34864 13.4175ZM13.5085 2.1197L10.1823 5.48359C9.84035 5.84165 9.84035 6.41956 10.1823 6.77762C10.5553 7.13568 11.1149 7.13255 11.4568 6.77449L14.8141 3.38545V4.47538C14.8141 4.98106 15.2182 5.38937 15.7156 5.38937C16.213 5.38937 16.6171 4.98106 16.6171 4.47538V0.2854H12.4827C11.9853 0.2854 11.5812 0.696834 11.5812 1.20252C11.5812 1.7082 11.9853 2.1197 12.4827 2.1197H13.5085Z" fill="white" fill-opacity="0.5"/>
</svg>
