<svg width="17" height="17" viewBox="0 0 17 17" fill="none" xmlns="http://www.w3.org/2000/svg">
<path fill-rule="evenodd" clip-rule="evenodd" d="M15.644 14.885C15.644 14.8209 15.595 14.7729 15.5339 14.7729C14.2654 14.7729 2.25301 14.7729 0.984529 14.7729C0.926453 14.7729 0.877548 14.8209 0.877548 14.885C0.877548 15.2182 0.877548 16.192 0.877548 16.5284C0.877548 16.5893 0.926453 16.6405 0.984529 16.6405C2.25301 16.6405 14.2654 16.6405 15.5339 16.6405C15.595 16.6405 15.644 16.5893 15.644 16.5284V14.885ZM15.644 9.80426C15.644 9.74339 15.595 9.69214 15.5339 9.69214C14.2654 9.69214 2.25301 9.69214 0.984529 9.69214C0.926453 9.69214 0.877548 9.74339 0.877548 9.80426C0.877548 10.1406 0.877548 11.1145 0.877548 11.4477C0.877548 11.5085 0.926453 11.5598 0.984529 11.5598C2.25301 11.5598 14.2654 11.5598 15.5339 11.5598C15.595 11.5598 15.644 11.5085 15.644 11.4477V9.80426ZM0.23877 3.34284C0.23877 1.72187 1.49197 0.408386 3.03554 0.408386H13.4981C15.0417 0.408386 16.3102 1.72187 16.3102 3.34284C16.3102 4.9606 15.0417 6.27403 13.4981 6.27403H3.03554C1.49197 6.27403 0.23877 4.9606 0.23877 3.34284ZM2.02066 3.34284C2.02066 2.75339 2.47619 2.27924 3.03554 2.27924H13.4981C14.0575 2.27924 14.513 2.75339 14.513 3.34284C14.513 3.92908 14.0575 4.40637 13.4981 4.40637H3.03554C2.47619 4.40637 2.02066 3.92908 2.02066 3.34284Z" fill="white" fill-opacity="0.5"/>
</svg>
