<svg width="17" height="17" viewBox="0 0 17 17" fill="none" xmlns="http://www.w3.org/2000/svg">
<path fill-rule="evenodd" clip-rule="evenodd" d="M0.856259 7.3638C0.765928 8.00276 0.771242 8.6553 0.869543 9.2997C1.01832 10.2867 1.59489 11.1486 2.43975 11.6516C4.75381 13.0302 10.2347 16.2957 10.2347 16.2957C10.4765 16.4371 10.7715 16.4371 11.0133 16.2957C11.2524 16.1543 11.4012 15.8933 11.4012 15.6105V0.963254C11.4012 0.680478 11.2524 0.416714 11.0133 0.275326C10.7715 0.133938 10.4765 0.133927 10.2347 0.278034C10.2347 0.278034 4.75381 3.54087 2.43975 4.9194C1.59489 5.42242 1.01832 6.28705 0.869543 7.27405L0.856259 7.3638ZM12.6765 2.38802C12.6765 2.35811 12.6898 2.32818 12.7163 2.31187C12.7402 2.29284 12.772 2.29011 12.7985 2.30098C15.1737 3.20369 16.8634 5.54474 16.8634 8.2855C16.8634 11.029 15.1737 13.3673 12.7985 14.2728C12.772 14.2836 12.7402 14.2782 12.7163 14.2619C12.6924 14.2429 12.6765 14.2156 12.6765 14.1857C12.6765 13.854 12.6765 13.003 12.6765 12.7066C12.6765 12.6441 12.711 12.5843 12.7668 12.5571C14.2785 11.7604 15.3146 10.1453 15.3146 8.2855C15.3146 6.4257 14.2785 4.81333 12.7668 4.01666C12.711 3.98675 12.6765 3.92966 12.6765 3.86441C12.6765 3.56804 12.6765 2.71702 12.6765 2.38802ZM2.3999 7.52418V7.51876C2.47694 7.00487 2.77994 6.55352 3.21831 6.2925L9.84949 2.34177C9.84949 2.34177 9.84949 12.4293 9.84949 14.0199C9.84949 14.0634 9.82837 14.1042 9.79117 14.1259C9.75397 14.1477 9.71151 14.1477 9.67431 14.1259C7.89958 13.0682 4.80973 11.2302 3.21831 10.2813C2.77994 10.0202 2.47694 9.56889 2.3999 9.05499C2.32285 8.54654 2.32285 8.02721 2.3999 7.51876V7.52418ZM12.6765 5.45232C12.6765 5.41425 12.6977 5.37888 12.7296 5.36257C12.7642 5.34625 12.804 5.34898 12.8332 5.37346C13.6807 6.04777 14.228 7.10273 14.228 8.2855C14.228 9.47098 13.6807 10.5233 12.8332 11.2003C12.804 11.222 12.7642 11.2247 12.7296 11.2084C12.6977 11.1921 12.6765 11.1568 12.6765 11.1214C12.6765 10.2079 12.6765 6.3659 12.6765 5.45232ZM0.856259 7.36103L0.867052 7.27946C0.864396 7.30665 0.858916 7.33384 0.856259 7.36103L0.824502 7.57043L0.856259 7.3638V7.36103Z" fill="white" fill-opacity="0.5"/>
</svg>
